<mxfile host="app.diagrams.net" modified="2022-12-22T17:54:14.142Z" agent="5.0 (Windows NT 10.0; Win64; x64) AppleWebKit/537.36 (KHTML, like Gecko) Chrome/108.0.0.0 Safari/537.36" etag="o0OGS0qotBIM2s4r04oW" version="20.3.1" type="github">
  <diagram name="Page-1" id="03018318-947c-dd8e-b7a3-06fadd420f32">
    <mxGraphModel dx="868" dy="1338" grid="1" gridSize="10" guides="1" tooltips="1" connect="1" arrows="1" fold="1" page="1" pageScale="1" pageWidth="1100" pageHeight="850" background="none" math="0" shadow="0">
      <root>
        <mxCell id="0" />
        <mxCell id="1" parent="0" />
        <mxCell id="_TkC-8K-jXRcafbLxtm0-1" value="Window Title" style="strokeWidth=1;shadow=0;dashed=0;align=center;html=1;shape=mxgraph.mockup.containers.window;align=left;verticalAlign=top;spacingLeft=8;strokeColor2=#008cff;strokeColor3=#c4c4c4;mainText=;fontSize=17;labelBackgroundColor=none;" vertex="1" parent="1">
          <mxGeometry x="60" y="-90" width="850" height="480" as="geometry" />
        </mxCell>
        <mxCell id="_TkC-8K-jXRcafbLxtm0-9" value="" style="verticalLabelPosition=bottom;shadow=0;dashed=0;align=center;html=1;verticalAlign=top;strokeWidth=1;shape=mxgraph.mockup.markup.line;strokeColor=#999999;" vertex="1" parent="1">
          <mxGeometry x="60" y="-10" width="850" height="20" as="geometry" />
        </mxCell>
        <mxCell id="_TkC-8K-jXRcafbLxtm0-10" value="" style="strokeWidth=1;shadow=0;dashed=0;align=center;html=1;shape=mxgraph.mockup.forms.rrect;rSize=0;strokeColor=#999999;" vertex="1" parent="1">
          <mxGeometry x="430" y="-50" width="410" height="30" as="geometry" />
        </mxCell>
        <mxCell id="_TkC-8K-jXRcafbLxtm0-11" value="Home" style="strokeColor=inherit;fillColor=inherit;gradientColor=inherit;strokeWidth=1;shadow=0;dashed=0;align=center;html=1;shape=mxgraph.mockup.forms.rrect;rSize=0;fontSize=17;fontColor=#666666;" vertex="1" parent="_TkC-8K-jXRcafbLxtm0-10">
          <mxGeometry width="64.66666666666667" height="30" as="geometry" />
        </mxCell>
        <mxCell id="_TkC-8K-jXRcafbLxtm0-12" value="Tentang" style="strokeColor=inherit;fillColor=inherit;gradientColor=inherit;strokeWidth=1;shadow=0;dashed=0;align=center;html=1;shape=mxgraph.mockup.forms.rrect;rSize=0;fontSize=17;fontColor=#666666;" vertex="1" parent="_TkC-8K-jXRcafbLxtm0-10">
          <mxGeometry x="64.66666666666667" width="64.66666666666667" height="30" as="geometry" />
        </mxCell>
        <mxCell id="_TkC-8K-jXRcafbLxtm0-13" value="PPDB" style="strokeColor=inherit;fillColor=inherit;gradientColor=inherit;strokeWidth=1;shadow=0;dashed=0;align=center;html=1;shape=mxgraph.mockup.forms.rrect;rSize=0;fontSize=17;fontColor=#666666;" vertex="1" parent="_TkC-8K-jXRcafbLxtm0-10">
          <mxGeometry x="129.33333333333334" width="64.66666666666667" height="30" as="geometry" />
        </mxCell>
        <mxCell id="_TkC-8K-jXRcafbLxtm0-14" value="Blog" style="strokeColor=inherit;fillColor=inherit;gradientColor=inherit;strokeWidth=1;shadow=0;dashed=0;align=center;html=1;shape=mxgraph.mockup.forms.rrect;rSize=0;fontSize=17;fontColor=#666666;" vertex="1" parent="_TkC-8K-jXRcafbLxtm0-10">
          <mxGeometry x="194" width="64.66666666666667" height="30" as="geometry" />
        </mxCell>
        <mxCell id="_TkC-8K-jXRcafbLxtm0-15" value="Kontak" style="strokeColor=inherit;fillColor=inherit;gradientColor=inherit;strokeWidth=1;shadow=0;dashed=0;align=center;html=1;shape=mxgraph.mockup.forms.rrect;rSize=0;fontSize=17;fontColor=#666666;" vertex="1" parent="_TkC-8K-jXRcafbLxtm0-10">
          <mxGeometry x="258.6666666666667" width="64.66666666666667" height="30" as="geometry" />
        </mxCell>
        <mxCell id="_TkC-8K-jXRcafbLxtm0-16" value="Dashboard" style="strokeColor=inherit;fillColor=inherit;gradientColor=inherit;strokeWidth=1;shadow=0;dashed=0;align=center;html=1;shape=mxgraph.mockup.forms.rrect;rSize=0;fontSize=17;fontColor=#666666;" vertex="1" parent="_TkC-8K-jXRcafbLxtm0-10">
          <mxGeometry x="323.33" width="86.67" height="30" as="geometry" />
        </mxCell>
        <mxCell id="_TkC-8K-jXRcafbLxtm0-17" value="LOGIN / REGISTER&lt;br&gt;" style="verticalLabelPosition=bottom;shadow=0;dashed=0;align=center;html=1;verticalAlign=top;strokeWidth=1;shape=mxgraph.mockup.graphics.simpleIcon;strokeColor=#999999;" vertex="1" parent="1">
          <mxGeometry x="860" y="-50" width="30" height="30" as="geometry" />
        </mxCell>
        <mxCell id="_TkC-8K-jXRcafbLxtm0-18" value="LOGO" style="verticalLabelPosition=bottom;shadow=0;dashed=0;align=center;html=1;verticalAlign=top;strokeWidth=1;shape=mxgraph.mockup.graphics.simpleIcon;strokeColor=#999999;" vertex="1" parent="1">
          <mxGeometry x="70" y="-50" width="100" height="30" as="geometry" />
        </mxCell>
        <mxCell id="_TkC-8K-jXRcafbLxtm0-19" value="GAMBAR" style="rounded=0;whiteSpace=wrap;html=1;" vertex="1" parent="1">
          <mxGeometry x="500" y="60" width="360" height="240" as="geometry" />
        </mxCell>
        <mxCell id="_TkC-8K-jXRcafbLxtm0-21" value="KONTEN" style="rounded=0;whiteSpace=wrap;html=1;" vertex="1" parent="1">
          <mxGeometry x="100" y="60" width="330" height="240" as="geometry" />
        </mxCell>
      </root>
    </mxGraphModel>
  </diagram>
</mxfile>
